<svg xmlns="http://www.w3.org/2000/svg" viewBox="0 0 420 240" role="img" aria-label="UK Certified Counsellor - British Council UK Agent Quality Framework">
  <rect width="420" height="240" rx="18" fill="#00E5C0"/>
  <g fill="#3B0A66">
    <circle cx="30" cy="34" r="9"/>
    <circle cx="52" cy="34" r="9"/>
    <circle cx="30" cy="56" r="9"/>
    <circle cx="52" cy="56" r="9"/>
  </g>
  <text x="70" y="40" font-family="Helvetica, Arial, sans-serif" font-size="15" font-weight="700" fill="#3B0A66">BRITISH</text>
  <text x="70" y="60" font-family="Helvetica, Arial, sans-serif" font-size="15" font-weight="700" fill="#3B0A66">COUNCIL</text>
  <path d="M232 0 H402 A18 18 0 0 1 420 18 V58 A18 18 0 0 1 402 76 H232 A38 38 0 0 1 232 0 Z" fill="#ffffff"/>
  <text x="262" y="30" font-family="Helvetica, Arial, sans-serif" font-size="11" font-weight="700" fill="#3B0A66">UK AGENT</text>
  <text x="262" y="46" font-family="Helvetica, Arial, sans-serif" font-size="11" font-weight="700" fill="#3B0A66">QUALITY</text>
  <text x="262" y="62" font-family="Helvetica, Arial, sans-serif" font-size="11" font-weight="700" fill="#3B0A66">FRAMEWORK</text>
  <text x="30" y="132" font-family="Helvetica, Arial, sans-serif" font-size="30" font-weight="800" fill="#12233F">I am a UK</text>
  <text x="30" y="170" font-family="Helvetica, Arial, sans-serif" font-size="30" font-weight="800" fill="#12233F">Certified</text>
  <text x="30" y="208" font-family="Helvetica, Arial, sans-serif" font-size="30" font-weight="800" fill="#12233F">Counsellor</text>
  <g opacity="0.92">
    <circle cx="352" cy="186" r="42" fill="#3B0A66"/>
    <circle cx="392" cy="212" r="30" fill="#9B7EDE"/>
  </g>
</svg>
